<?xml version="1.0" standalone="no"?>
<!DOCTYPE svg PUBLIC "-//W3C//DTD SVG 20010904//EN"
 "http://www.w3.org/TR/2001/REC-SVG-20010904/DTD/svg10.dtd">
<svg version="1.0" xmlns="http://www.w3.org/2000/svg"
 width="900.000000pt" height="480.000000pt" viewBox="0 0 900.000000 480.000000"
 preserveAspectRatio="xMidYMid meet">
<metadata>
Created by potrace 1.16, written by Peter Selinger 2001-2019
</metadata>
<g transform="translate(0.000000,480.000000) scale(0.100000,-0.100000)"
fill="#000000" stroke="none">
<path d="M2372 4288 l3 -243 113 -3 112 -3 0 -1363 0 -1363 -176 -7 c-97 -4
-180 -4 -185 1 -4 4 -9 42 -11 83 l-3 75 -42 3 -43 3 0 -565 0 -566 45 0 45 0
0 125 0 125 285 0 285 0 0 -125 0 -125 45 0 45 0 0 125 0 125 285 0 285 0 0
-125 0 -125 45 0 44 0 3 123 3 122 283 3 282 2 0 -125 0 -125 45 0 45 0 0 566
0 565 -42 -3 -43 -3 -3 -77 -3 -78 -34 0 -35 0 0 134 c0 157 10 219 50 304 79
168 283 276 465 245 191 -33 340 -176 375 -362 5 -30 10 -114 10 -187 l0 -134
-35 0 -35 0 0 74 c0 80 -4 86 -61 86 l-29 0 0 -565 0 -565 45 0 45 0 0 125 0
125 283 -2 282 -3 3 -122 3 -123 44 0 45 0 0 125 0 125 285 0 285 0 0 -125 0
-125 45 0 44 0 3 123 3 122 283 3 282 2 0 -125 0 -125 45 0 45 0 0 566 0 565
-42 -3 -43 -3 -5 -80 -5 -80 -30 -2 c-16 -1 -99 1 -182 4 l-153 6 0 1363 0
1363 113 3 112 3 3 243 2 242 -2130 0 -2130 0 2 -242z m1612 11 c36 -17 49
-62 32 -104 -11 -26 -23 -36 -53 -44 -21 -6 -44 -11 -50 -11 -9 0 -13 -16 -13
-45 0 -41 -2 -45 -25 -45 l-25 0 0 130 0 130 55 0 c30 0 65 -5 79 -11z m245
-13 c27 -25 27 -73 0 -102 l-21 -22 29 -44 c47 -69 47 -68 15 -68 -24 0 -34 9
-60 50 -17 28 -38 50 -47 50 -11 0 -15 -12 -15 -50 0 -47 -2 -50 -25 -50 l-25
0 0 131 0 131 64 -4 c45 -3 71 -10 85 -22z m340 15 c8 -5 11 -16 7 -26 -5 -13
-14 -16 -36 -11 -65 13 -83 -27 -25 -58 50 -27 68 -51 67 -88 -1 -44 -32 -68
-87 -68 -59 0 -75 8 -75 36 0 21 3 24 25 18 55 -14 85 -8 85 16 0 13 -13 26
-38 39 -45 23 -58 37 -67 73 -10 41 31 78 87 78 24 0 49 -4 57 -9z m254 -12
c56 -43 58 -161 4 -211 -51 -48 -155 -33 -186 26 -16 28 -19 96 -8 139 16 61
135 90 190 46z m219 -69 l53 -91 3 91 c3 88 3 90 27 90 l25 0 0 -130 0 -130
-34 0 c-32 0 -36 5 -87 93 l-54 92 -3 -93 c-3 -90 -4 -93 -25 -90 -21 3 -22 8
-25 131 l-3 127 35 0 c34 0 38 -4 88 -90z m-834 -1022 l-3 -513 -565 0 -565 0
-3 513 -2 512 570 0 570 0 -2 -512z m1720 0 l-3 -513 -565 0 -565 0 -3 513 -2
512 570 0 570 0 -2 -512z m-2988 -1783 c0 -105 0 -105 -25 -105 -23 0 -24 3
-27 78 l-3 77 -40 0 -40 0 -5 -80 c-4 -68 -8 -80 -24 -83 -24 -5 -34 11 -31
51 2 18 3 62 4 100 l1 67 95 0 95 0 0 -105z m665 2 c0 -108 -3 -121 -31 -115
-16 3 -20 15 -24 83 l-5 80 -40 0 -40 0 -5 -80 c-4 -72 -7 -80 -25 -80 -19 0
-20 8 -23 108 l-3 108 98 -3 98 -3 0 -98z m1983 -4 c-3 -100 -4 -108 -23 -108
-18 0 -21 8 -25 80 l-5 80 -40 0 -40 0 -5 -80 c-5 -74 -7 -80 -27 -83 -13 -2
-23 -2 -24 0 -5 27 -9 193 -5 203 4 12 26 15 101 15 l96 0 -3 -107z m663 45
c1 -35 3 -82 4 -106 3 -46 -5 -57 -35 -47 -16 5 -20 17 -22 83 l-3 77 -40 0
-40 0 -3 -77 c-3 -75 -4 -78 -27 -78 -25 0 -25 0 -25 105 l0 105 95 0 95 0 1
-62z m-3651 -483 l5 -270 70 0 70 0 1 270 2 270 26 3 26 3 0 -305 0 -306 -285
0 -285 0 0 305 0 305 183 -2 182 -3 5 -270z m340 6 l0 -268 52 -7 c29 -4 135
-4 235 0 l183 7 0 268 0 269 25 0 25 0 0 -305 0 -305 -285 0 -285 0 0 305 0
305 25 0 25 0 0 -269z m665 44 c0 -121 1 -241 3 -266 l2 -46 173 -8 c96 -3
195 -4 220 0 l47 7 0 269 0 269 35 0 35 0 0 -305 0 -305 -285 0 -285 0 0 306
0 305 28 -3 27 -3 0 -220z m1345 -44 l0 -269 47 -7 c25 -4 124 -3 220 0 l173
8 2 46 c1 25 2 145 3 266 l0 220 28 3 27 3 0 -305 0 -306 -285 0 -285 0 0 305
0 305 35 0 35 0 0 -269z m640 0 l0 -268 183 -7 c100 -4 206 -4 235 0 l52 7 0
268 0 269 25 0 25 0 0 -305 0 -305 -285 0 -285 0 0 305 0 305 25 0 25 0 0
-269z m661 257 c0 -7 1 -130 3 -273 l2 -260 69 0 70 0 5 270 5 270 183 3 182
2 0 -305 0 -305 -285 0 -285 0 0 305 0 305 25 0 c14 0 25 -6 26 -12z"/>
<path d="M4705 4245 c-50 -49 -23 -147 40 -147 63 0 90 98 40 147 -13 14 -31
25 -40 25 -9 0 -27 -11 -40 -25z"/>
<path d="M3180 3195 l0 -405 115 0 115 0 0 405 0 405 -115 0 -115 0 0 -405z"/>
<path d="M3520 3195 l0 -406 118 3 117 3 3 403 2 402 -120 0 -120 0 0 -405z"/>
<path d="M3870 3195 l0 -406 113 3 112 3 3 403 2 402 -115 0 -115 0 0 -405z"/>
<path d="M4902 3198 l3 -403 113 -3 112 -3 0 406 0 405 -115 0 -115 0 2 -402z"/>
<path d="M5242 3198 l3 -403 115 0 115 0 3 403 2 402 -120 0 -120 0 2 -402z"/>
<path d="M5590 3195 l0 -405 115 0 115 0 0 405 0 405 -115 0 -115 0 0 -405z"/>
</g>
</svg>
